<mxfile host="app.diagrams.net" modified="2024-03-30T15:20:18.742Z" agent="Mozilla/5.0 (Windows NT 10.0; Win64; x64) AppleWebKit/537.36 (KHTML, like Gecko) Chrome/123.0.0.0 Safari/537.36" version="23.1.2" etag="lLwo_33IpBJkVwH4Iywz" type="github">
  <diagram name="Page-1" id="Sk6j98aPQ5nFK-PZaCqm">
    <mxGraphModel>
      <root>
        <mxCell id="0" />
        <mxCell id="1" parent="0" />
      </root>
    </mxGraphModel>
  </diagram>
</mxfile>
